<?xml version="1.0" encoding="UTF-8"?>
<svg id="Ebene_2" xmlns="http://www.w3.org/2000/svg" viewBox="0 0 422.15 885.6">
  <defs>
    <style>
      .cls-1 {
        stroke-dasharray: 5.67 2.84;
        stroke-width: .43px;
      }

      .cls-1, .cls-2 {
        fill: none;
        stroke: #000;
        stroke-linecap: round;
        stroke-linejoin: round;
      }

      .cls-2 {
        stroke-width: 1.13px;
      }
    </style>
  </defs>
  <g id="Ebene_1-2" data-name="Ebene_1">
    <g id="ELLIPSE">
      <path class="cls-1" d="M278.24,530.26c-1.11-.64-2.9-.64-4.01,0-.53.31-.83.72-.83,1.16"/>
    </g>
    <g id="ELLIPSE-2" data-name="ELLIPSE">
      <path class="cls-1" d="M214.17,68.86c-.4.34-.62.74-.62,1.16"/>
    </g>
    <g id="ELLIPSE-3" data-name="ELLIPSE">
      <path class="cls-1" d="M318.84,545.02c2.28,1.31,4.46,1.53,6.07.6"/>
    </g>
    <g id="ELLIPSE-4" data-name="ELLIPSE">
      <path class="cls-1" d="M164.64,461.1c-1.38.42-1.91,1.41-1.18,2.21s2.45,1.1,3.83.68c1.38-.42,1.91-1.41,1.18-2.21-.27-.29-.68-.53-1.18-.68"/>
    </g>
    <g id="ELLIPSE-5" data-name="ELLIPSE">
      <path class="cls-1" d="M318.84,547.34c2.81,1.62,5.5,1.89,7.49.74"/>
    </g>
    <g id="ELLIPSE-6" data-name="ELLIPSE">
      <path class="cls-1" d="M225.65,72.91c0-.41-.22-.82-.62-1.16"/>
    </g>
    <g id="ELLIPSE-7" data-name="ELLIPSE">
      <path class="cls-1" d="M327.42,123.37c0-5.47-3.84-12.13-8.58-14.87"/>
    </g>
    <g id="ELLIPSE-8" data-name="ELLIPSE">
      <path class="cls-1" d="M127.81,424.82c0,6.75,4.74,14.96,10.59,18.34"/>
    </g>
    <g id="ELLIPSE-9" data-name="ELLIPSE">
      <path class="cls-1" d="M99.3,457.63c1.24,1.47,2.62,2.66,4.02,3.47"/>
    </g>
    <g id="ELLIPSE-10" data-name="ELLIPSE">
      <path class="cls-1" d="M163.13,467.76c0,.9,1.27,1.64,2.84,1.64s2.84-.73,2.84-1.64c0-.43-.3-.85-.83-1.16"/>
    </g>
    <g id="ELLIPSE-11" data-name="ELLIPSE">
      <path class="cls-1" d="M208.61,63.07c0-.41-.22-.82-.62-1.16"/>
    </g>
    <g id="ELLIPSE-12" data-name="ELLIPSE">
      <path class="cls-1" d="M197.13,59.02c-.4.34-.62.74-.62,1.16"/>
    </g>
    <g id="ELLIPSE-13" data-name="ELLIPSE">
      <path class="cls-1" d="M130.91,1.27c-1.99,1.15-3.1,3.61-3.1,6.85"/>
    </g>
    <g id="ELLIPSE-14" data-name="ELLIPSE">
      <path class="cls-1" d="M138.4,4.33c-2.28-1.31-4.46-1.53-6.07-.6"/>
    </g>
    <g id="ELLIPSE-15" data-name="ELLIPSE">
      <path class="cls-1" d="M142.91,475.28c-1.11-.64-2.9-.64-4.01,0-.53.31-.83.72-.83,1.16"/>
    </g>
    <g id="ELLIPSE-16" data-name="ELLIPSE">
      <path class="cls-1" d="M138.07,476.44c0,.9,1.27,1.64,2.84,1.64s2.84-.73,2.84-1.64c0-.43-.3-.85-.83-1.16"/>
    </g>
    <g id="ELLIPSE-17" data-name="ELLIPSE">
      <path class="cls-1" d="M157.58,114.14c-11.12,4.28-20.57,9.85-27.76,16.36"/>
    </g>
    <g id="ELLIPSE-18" data-name="ELLIPSE">
      <path class="cls-1" d="M307.47,160.44c0-21.86-22.17-41.7-56.68-50.71"/>
    </g>
    <g id="ELLIPSE-19" data-name="ELLIPSE">
      <path class="cls-1" d="M129.82,130.5c-28.64,25.91-15.48,60.32,29.4,76.86,44.88,16.54,104.48,8.94,133.12-16.97,9.89-8.94,15.14-19.33,15.14-29.94"/>
    </g>
    <g id="ELLIPSE-20" data-name="ELLIPSE">
      <path class="cls-1" d="M50.69,488.59c-26.3,15.18-47.62,52.11-47.62,82.47"/>
    </g>
    <g id="ELLIPSE-21" data-name="ELLIPSE">
      <path class="cls-1" d="M238.64,435.06c0-14.58-5.02-25.67-13.95-30.83"/>
    </g>
    <g id="ELLIPSE-22" data-name="ELLIPSE">
      <path class="cls-1" d="M224.7,404.23c-8.93-5.16-21.04-3.96-33.67,3.34"/>
    </g>
    <g id="ELLIPSE-23" data-name="ELLIPSE">
      <path class="cls-1" d="M260.82,115.52c1.27-.44,2.52-.9,3.75-1.37"/>
    </g>
    <g id="ELLIPSE-24" data-name="ELLIPSE">
      <path class="cls-1" d="M264.57,114.14c13.58-5.23,24.64-12.36,32.13-20.74"/>
    </g>
    <g id="ELLIPSE-25" data-name="ELLIPSE">
      <path class="cls-1" d="M164.7,17.19c-15.74,4.81-28.96,11.97-38.26,20.74"/>
    </g>
    <g id="ELLIPSE-26" data-name="ELLIPSE">
      <ellipse class="cls-1" cx="261.2" cy="543.57" rx="2.84" ry="1.64"/>
    </g>
    <g id="ELLIPSE-27" data-name="ELLIPSE">
      <ellipse class="cls-1" cx="165.97" cy="465.44" rx="2.84" ry="1.64"/>
    </g>
    <g id="LINE">
      <line class="cls-1" x1="240.8" y1="540.48" x2="240.8" y2="542.79"/>
    </g>
    <g id="LINE-2" data-name="LINE">
      <line class="cls-1" x1="238.64" y1="588.43" x2="238.64" y2="435.06"/>
    </g>
    <g id="LINE-3" data-name="LINE">
      <line class="cls-1" x1="307.47" y1="160.44" x2="307.47" y2="67.84"/>
    </g>
    <g id="LINE-4" data-name="LINE">
      <line class="cls-1" x1="240.8" y1="542.79" x2="279.24" y2="564.99"/>
    </g>
    <g id="LINE-5" data-name="LINE">
      <line class="cls-1" x1="289.82" y1="565.88" x2="324.91" y2="545.62"/>
    </g>
    <g id="LINE-6" data-name="LINE">
      <line class="cls-1" x1="208.61" y1="63.07" x2="208.61" y2="60.75"/>
    </g>
    <g id="LINE-7" data-name="LINE">
      <line class="cls-1" x1="168.8" y1="467.76" x2="168.8" y2="465.44"/>
    </g>
    <g id="LINE-8" data-name="LINE">
      <line class="cls-1" x1="329.42" y1="460.61" x2="292.33" y2="439.19"/>
    </g>
    <g id="LINE-9" data-name="LINE">
      <line class="cls-1" x1="327.42" y1="123.37" x2="292.33" y2="143.62"/>
    </g>
    <g id="LINE-10" data-name="LINE">
      <line class="cls-1" x1="275.89" y1="520.22" x2="240.8" y2="540.48"/>
    </g>
    <g id="LINE-11" data-name="LINE">
      <line class="cls-1" x1="318.84" y1="108.5" x2="283.75" y2="128.76"/>
    </g>
    <g id="LINE-12" data-name="LINE">
      <line class="cls-1" x1="327.42" y1="540.07" x2="327.42" y2="123.37"/>
    </g>
    <g id="LINE-13" data-name="LINE">
      <line class="cls-1" x1="230.62" y1="55.25" x2="230.62" y2="57.57"/>
    </g>
    <g id="LINE-14" data-name="LINE">
      <line class="cls-1" x1="230.62" y1="57.57" x2="195.54" y2="77.83"/>
    </g>
    <g id="LINE-15" data-name="LINE">
      <line class="cls-1" x1="225.65" y1="72.91" x2="225.65" y2="70.59"/>
    </g>
    <g id="LINE-16" data-name="LINE">
      <line class="cls-1" x1="213.55" y1="67.7" x2="213.55" y2="70.01"/>
    </g>
    <g id="LINE-17" data-name="LINE">
      <line class="cls-1" x1="327.42" y1="540.07" x2="292.33" y2="560.32"/>
    </g>
    <g id="LINE-18" data-name="LINE">
      <line class="cls-1" x1="238.64" y1="643.41" x2="241.15" y2="641.96"/>
    </g>
    <g id="LINE-19" data-name="LINE">
      <line class="cls-1" x1="258.36" y1="543.57" x2="258.36" y2="545.89"/>
    </g>
    <g id="LINE-20" data-name="LINE">
      <line class="cls-1" x1="181.35" y1="467.96" x2="138.4" y2="443.16"/>
    </g>
    <g id="LINE-21" data-name="LINE">
      <line class="cls-1" x1="129.82" y1="193.33" x2="129.82" y2="9.28"/>
    </g>
    <g id="LINE-22" data-name="LINE">
      <line class="cls-1" x1="146.26" y1="488.21" x2="103.32" y2="463.42"/>
    </g>
    <g id="LINE-23" data-name="LINE">
      <line class="cls-1" x1="197.54" y1="61.62" x2="197.54" y2="59.31"/>
    </g>
    <g id="LINE-24" data-name="LINE">
      <line class="cls-1" x1="146.26" y1="488.21" x2="181.35" y2="467.96"/>
    </g>
    <g id="LINE-25" data-name="LINE">
      <line class="cls-1" x1="138.4" y1="4.33" x2="103.32" y2="24.58"/>
    </g>
    <g id="LINE-26" data-name="LINE">
      <line class="cls-1" x1="127.81" y1="424.82" x2="127.81" y2="8.12"/>
    </g>
    <g id="LINE-27" data-name="LINE">
      <line class="cls-1" x1="163.13" y1="465.44" x2="163.13" y2="467.76"/>
    </g>
    <g id="LINE-28" data-name="LINE">
      <line class="cls-1" x1="103.32" y1="463.42" x2="138.4" y2="443.16"/>
    </g>
    <g id="LINE-29" data-name="LINE">
      <line class="cls-1" x1="92.73" y1="445.08" x2="127.81" y2="424.82"/>
    </g>
    <g id="LINE-30" data-name="LINE">
      <line class="cls-1" x1="329.42" y1="536.01" x2="292.33" y2="557.43"/>
    </g>
    <g id="LINE-31" data-name="LINE">
      <line class="cls-1" x1="50.69" y1="488.59" x2="231.12" y2="592.77"/>
    </g>
    <g id="LINE-32" data-name="LINE">
      <line class="cls-1" x1="3.07" y1="571.06" x2="183.51" y2="675.24"/>
    </g>
    <g id="LINE-33" data-name="LINE">
      <line class="cls-1" x1="273.4" y1="523.32" x2="273.4" y2="526.21"/>
    </g>
    <g id="LINE-34" data-name="LINE">
      <line class="cls-1" x1=".57" y1="780.86" x2="3.07" y2="779.41"/>
    </g>
    <g id="LINE-35" data-name="LINE">
      <line class="cls-1" x1="163.13" y1="459.66" x2="163.13" y2="462.55"/>
    </g>
    <g id="LINE-36" data-name="LINE">
      <line class="cls-1" x1="310.31" y1="160.44" x2="310.31" y2="101.26"/>
    </g>
    <g id="LINE-37" data-name="LINE">
      <line class="cls-1" x1="114.68" y1="67.84" x2="114.68" y2="160.44"/>
    </g>
    <g id="ELLIPSE-28" data-name="ELLIPSE">
      <path class="cls-2" d="M219.6,66.25c-1.38-.8-3.63-.8-5.01,0-1.21.7-1.38,1.79-.42,2.6"/>
    </g>
    <g id="ELLIPSE-29" data-name="ELLIPSE">
      <path class="cls-2" d="M167.29,461.1c-.83-.25-1.82-.25-2.65,0"/>
    </g>
    <g id="ELLIPSE-30" data-name="ELLIPSE">
      <path class="cls-2" d="M294.34,144.78c0-6.75-4.74-14.96-10.59-18.34"/>
    </g>
    <g id="ELLIPSE-31" data-name="ELLIPSE">
      <path class="cls-2" d="M202.55,58.73c-1.38-.8-3.63-.8-5.01,0-.15.09-.29.19-.42.29"/>
    </g>
    <g id="ELLIPSE-32" data-name="ELLIPSE">
      <path class="cls-2" d="M283.75,567.59c2.81,1.62,5.5,1.89,7.49.74"/>
    </g>
    <g id="ELLIPSE-33" data-name="ELLIPSE">
      <path class="cls-2" d="M225.02,71.75c-.12-.1-.26-.2-.42-.29"/>
    </g>
    <g id="ELLIPSE-34" data-name="ELLIPSE">
      <path class="cls-2" d="M214.17,68.86c.12.1.26.2.42.29"/>
    </g>
    <g id="ELLIPSE-35" data-name="ELLIPSE">
      <path class="cls-2" d="M329.42,124.52c0-6.75-4.74-14.96-10.59-18.34"/>
    </g>
    <g id="ELLIPSE-36" data-name="ELLIPSE">
      <path class="cls-2" d="M326.32,548.08c1.99-1.15,3.1-3.61,3.1-6.85"/>
    </g>
    <g id="ELLIPSE-37" data-name="ELLIPSE">
      <path class="cls-2" d="M225.02,71.75c.97-.81.79-1.91-.42-2.6"/>
    </g>
    <g id="ELLIPSE-38" data-name="ELLIPSE">
      <path class="cls-2" d="M129.82,425.98c0,3.67,1.76,8.06,4.57,11.4"/>
    </g>
    <g id="ELLIPSE-39" data-name="ELLIPSE">
      <path class="cls-2" d="M202.55,56.41c-1.38-.8-3.63-.8-5.01,0-1.21.7-1.38,1.79-.42,2.6"/>
    </g>
    <g id="ELLIPSE-40" data-name="ELLIPSE">
      <path class="cls-2" d="M250.8,109.73c-30.31-7.91-65.55-6.25-93.22,4.41"/>
    </g>
    <g id="ELLIPSE-41" data-name="ELLIPSE">
      <path class="cls-2" d="M92.73,445.08c0,4.28,1.94,9.36,5.1,13.4"/>
    </g>
    <g id="ELLIPSE-42" data-name="ELLIPSE">
      <path class="cls-2" d="M292.33,143.62c0-5.47-3.84-12.13-8.58-14.87"/>
    </g>
    <g id="ELLIPSE-43" data-name="ELLIPSE">
      <path class="cls-2" d="M95.83,21.52c-1.99,1.15-3.1,3.61-3.1,6.85"/>
    </g>
    <g id="ELLIPSE-44" data-name="ELLIPSE">
      <path class="cls-2" d="M296.7,93.41c24.45-27.3,5.94-60.88-41.35-75-27.77-8.29-60.78-8.29-88.56,0"/>
    </g>
    <g id="ELLIPSE-45" data-name="ELLIPSE">
      <path class="cls-2" d="M94.73,446.24c0,3.67,1.76,8.06,4.57,11.4"/>
    </g>
    <g id="ELLIPSE-46" data-name="ELLIPSE">
      <path class="cls-2" d="M277.56,524.76c-.83-.25-1.82-.25-2.65,0"/>
    </g>
    <g id="ELLIPSE-47" data-name="ELLIPSE">
      <path class="cls-2" d="M207.98,61.91c-.12-.1-.26-.2-.42-.29"/>
    </g>
    <g id="ELLIPSE-48" data-name="ELLIPSE">
      <path class="cls-2" d="M103.32,22.27c-2.81-1.62-5.5-1.89-7.49-.74"/>
    </g>
    <g id="ELLIPSE-49" data-name="ELLIPSE">
      <path class="cls-2" d="M219.6,68.57c-1.38-.8-3.63-.8-5.01,0-.15.09-.29.19-.42.29"/>
    </g>
    <g id="ELLIPSE-50" data-name="ELLIPSE">
      <path class="cls-2" d="M138.4,2.01c-2.81-1.62-5.5-1.89-7.49-.74"/>
    </g>
    <g id="ELLIPSE-51" data-name="ELLIPSE">
      <path class="cls-2" d="M167.29,461.1c1.38-.42,1.91-1.41,1.18-2.21s-2.45-1.1-3.83-.68-1.91,1.41-1.18,2.21c.27.29.68.53,1.18.68"/>
    </g>
    <g id="ELLIPSE-52" data-name="ELLIPSE">
      <path class="cls-2" d="M419.08,539.23c0-30.37-21.32-42.67-47.62-27.49"/>
    </g>
    <g id="ELLIPSE-53" data-name="ELLIPSE">
      <path class="cls-2" d="M421.58,537.79c0-15.35-5.28-27.02-14.68-32.45"/>
    </g>
    <g id="ELLIPSE-54" data-name="ELLIPSE">
      <path class="cls-2" d="M277.56,524.76c1.38-.42,1.91-1.41,1.18-2.21s-2.45-1.1-3.83-.68c-1.38.42-1.91,1.41-1.18,2.21.27.29.68.53,1.18.68"/>
    </g>
    <g id="ELLIPSE-55" data-name="ELLIPSE">
      <path class="cls-2" d="M406.9,505.34c-9.4-5.43-22.15-4.16-35.44,3.51"/>
    </g>
    <g id="ELLIPSE-56" data-name="ELLIPSE">
      <path class="cls-2" d="M157.58,114.14c31.05,11.96,71.27,12.49,103.24,1.37"/>
    </g>
    <g id="ELLIPSE-57" data-name="ELLIPSE">
      <path class="cls-2" d="M298.8,94.62c7.56-8.25,11.51-17.44,11.51-26.78"/>
    </g>
    <g id="LINE-38" data-name="LINE">
      <line class="cls-1" x1="168.8" y1="462.55" x2="168.8" y2="459.66"/>
    </g>
    <g id="ELLIPSE-58" data-name="ELLIPSE">
      <path class="cls-2" d="M129.82,193.33c31.46,25.91,93.34,32.19,138.22,14.03,9.45-3.82,17.67-8.57,24.3-14.03"/>
    </g>
    <g id="LINE-39" data-name="LINE">
      <line class="cls-1" x1="219.6" y1="74.35" x2="219.6" y2="72.04"/>
    </g>
    <g id="ELLIPSE-59" data-name="ELLIPSE">
      <path class="cls-2" d="M111.84,160.44c0,11.77,6.28,23.25,17.98,32.89"/>
    </g>
    <g id="LINE-40" data-name="LINE">
      <line class="cls-1" x1="214.58" y1="71.46" x2="219.6" y2="74.35"/>
    </g>
    <g id="LINE-41" data-name="LINE">
      <line class="cls-2" x1="224.61" y1="69.14" x2="219.6" y2="66.25"/>
    </g>
    <g id="LINE-42" data-name="LINE">
      <line class="cls-1" x1="279.07" y1="526.21" x2="279.07" y2="523.32"/>
    </g>
    <g id="LINE-43" data-name="LINE">
      <line class="cls-2" x1="130.91" y1="1.27" x2="95.83" y2="21.52"/>
    </g>
    <g id="LINE-44" data-name="LINE">
      <line class="cls-2" x1="191.03" y1="404.67" x2="292.33" y2="463.16"/>
    </g>
    <g id="LINE-45" data-name="LINE">
      <line class="cls-1" x1="275.89" y1="522.54" x2="318.84" y2="547.34"/>
    </g>
    <g id="LINE-46" data-name="LINE">
      <line class="cls-2" x1="292.33" y1="193.33" x2="292.33" y2="143.62"/>
    </g>
    <g id="LINE-47" data-name="LINE">
      <line class="cls-1" x1="264.03" y1="545.89" x2="264.03" y2="543.57"/>
    </g>
    <g id="LINE-48" data-name="LINE">
      <line class="cls-2" x1="111.84" y1="67.84" x2="111.84" y2="160.44"/>
    </g>
    <g id="LINE-49" data-name="LINE">
      <line class="cls-1" x1="240.8" y1="542.79" x2="275.89" y2="522.54"/>
    </g>
    <g id="LINE-50" data-name="LINE">
      <line class="cls-2" x1="262.88" y1="116.71" x2="260.82" y2="115.52"/>
    </g>
    <g id="LINE-51" data-name="LINE">
      <line class="cls-2" x1="238.64" y1="588.43" x2="231.12" y2="592.77"/>
    </g>
    <g id="LINE-52" data-name="LINE">
      <line class="cls-1" x1="279.07" y1="531.42" x2="279.07" y2="529.11"/>
    </g>
    <g id="LINE-53" data-name="LINE">
      <line class="cls-2" x1="195.54" y1="77.83" x2="195.54" y2="75.51"/>
    </g>
    <g id="LINE-54" data-name="LINE">
      <line class="cls-2" x1="419.08" y1="747.58" x2="419.08" y2="539.23"/>
    </g>
    <g id="LINE-55" data-name="LINE">
      <line class="cls-1" x1="202.55" y1="64.51" x2="202.55" y2="62.2"/>
    </g>
    <g id="LINE-56" data-name="LINE">
      <line class="cls-2" x1="238.64" y1="643.41" x2="419.08" y2="747.58"/>
    </g>
    <g id="LINE-57" data-name="LINE">
      <line class="cls-2" x1="310.31" y1="101.26" x2="298.8" y2="94.62"/>
    </g>
    <g id="LINE-58" data-name="LINE">
      <line class="cls-1" x1="197.54" y1="61.62" x2="202.55" y2="64.51"/>
    </g>
    <g id="LINE-59" data-name="LINE">
      <line class="cls-2" x1="164.7" y1="17.19" x2="166.8" y2="18.41"/>
    </g>
    <g id="LINE-60" data-name="LINE">
      <line class="cls-1" x1="138.4" y1="4.33" x2="226.61" y2="55.25"/>
    </g>
    <g id="LINE-61" data-name="LINE">
      <line class="cls-2" x1="279.24" y1="564.99" x2="283.75" y2="567.59"/>
    </g>
    <g id="LINE-62" data-name="LINE">
      <line class="cls-1" x1="132.33" y1="3.72" x2="97.25" y2="23.98"/>
    </g>
    <g id="LINE-63" data-name="LINE">
      <line class="cls-2" x1="126.44" y1="37.93" x2="128.5" y2="39.12"/>
    </g>
    <g id="LINE-64" data-name="LINE">
      <line class="cls-2" x1="181" y1="885.04" x2="181" y2="676.69"/>
    </g>
    <g id="LINE-65" data-name="LINE">
      <line class="cls-2" x1="283.75" y1="126.44" x2="318.84" y2="106.18"/>
    </g>
    <g id="LINE-66" data-name="LINE">
      <line class="cls-2" x1="294.34" y1="561.48" x2="329.42" y2="541.22"/>
    </g>
    <g id="LINE-67" data-name="LINE">
      <line class="cls-1" x1="241.15" y1="641.96" x2="241.15" y2="433.61"/>
    </g>
    <g id="LINE-68" data-name="LINE">
      <line class="cls-2" x1="329.42" y1="536.01" x2="329.42" y2="533.12"/>
    </g>
    <g id="LINE-69" data-name="LINE">
      <line class="cls-1" x1="181.35" y1="465.64" x2="138.4" y2="440.85"/>
    </g>
    <g id="LINE-70" data-name="LINE">
      <line class="cls-2" x1="195.54" y1="75.51" x2="230.62" y2="55.25"/>
    </g>
    <g id="LINE-71" data-name="LINE">
      <line class="cls-1" x1="181.35" y1="467.96" x2="181.35" y2="465.64"/>
    </g>
    <g id="LINE-72" data-name="LINE">
      <line class="cls-2" x1="129.82" y1="425.98" x2="129.82" y2="193.33"/>
    </g>
    <g id="LINE-73" data-name="LINE">
      <line class="cls-2" x1="318.84" y1="106.18" x2="310.31" y2="101.26"/>
    </g>
    <g id="LINE-74" data-name="LINE">
      <line class="cls-1" x1="138.07" y1="474.12" x2="138.07" y2="476.44"/>
    </g>
    <g id="LINE-75" data-name="LINE">
      <line class="cls-2" x1="99.3" y1="457.63" x2="97.83" y2="458.48"/>
    </g>
    <g id="LINE-76" data-name="LINE">
      <line class="cls-2" x1="298.8" y1="94.62" x2="296.7" y2="93.41"/>
    </g>
    <g id="ELLIPSE-60" data-name="ELLIPSE">
      <path class="cls-2" d="M274.91,524.76c.83.25,1.82.25,2.65,0"/>
    </g>
    <g id="LINE-77" data-name="LINE">
      <line class="cls-1" x1="241.15" y1="641.96" x2="421.58" y2="746.14"/>
    </g>
    <g id="LINE-78" data-name="LINE">
      <line class="cls-2" x1="296.7" y1="93.41" x2="230.62" y2="55.25"/>
    </g>
    <g id="LINE-79" data-name="LINE">
      <line class="cls-1" x1="329.42" y1="533.12" x2="292.33" y2="554.53"/>
    </g>
    <g id="LINE-80" data-name="LINE">
      <line class="cls-2" x1="214.58" y1="69.14" x2="219.6" y2="72.04"/>
    </g>
    <g id="LINE-81" data-name="LINE">
      <line class="cls-1" x1="196.5" y1="57.86" x2="196.5" y2="60.17"/>
    </g>
    <g id="ELLIPSE-61" data-name="ELLIPSE">
      <path class="cls-2" d="M111.84,67.84c0,31.64,44.43,57.29,99.23,57.29,18.28,0,36.21-2.92,51.81-8.43"/>
    </g>
    <g id="LINE-82" data-name="LINE">
      <line class="cls-1" x1="292.33" y1="463.16" x2="329.42" y2="484.58"/>
    </g>
    <g id="LINE-83" data-name="LINE">
      <line class="cls-2" x1="224.61" y1="71.46" x2="224.61" y2="69.14"/>
    </g>
    <g id="LINE-84" data-name="LINE">
      <line class="cls-2" x1="260.82" y1="115.52" x2="250.8" y2="109.73"/>
    </g>
    <g id="LINE-85" data-name="LINE">
      <line class="cls-2" x1="226.61" y1="52.94" x2="226.61" y2="55.25"/>
    </g>
    <g id="LINE-86" data-name="LINE">
      <line class="cls-2" x1="292.33" y1="557.43" x2="292.33" y2="554.53"/>
    </g>
    <g id="ELLIPSE-62" data-name="ELLIPSE">
      <path class="cls-1" d="M292.33,193.33c31.46-25.91,20.58-61.64-24.3-79.8-44.88-18.16-106.76-11.88-138.22,14.03-11.7,9.64-17.98,21.12-17.98,32.89"/>
    </g>
    <g id="LINE-87" data-name="LINE">
      <line class="cls-2" x1="191.53" y1="73.2" x2="226.61" y2="52.94"/>
    </g>
    <g id="LINE-88" data-name="LINE">
      <line class="cls-1" x1="283.75" y1="567.59" x2="294.34" y2="561.48"/>
    </g>
    <g id="LINE-89" data-name="LINE">
      <line class="cls-2" x1="292.33" y1="463.16" x2="292.33" y2="439.19"/>
    </g>
    <g id="ELLIPSE-63" data-name="ELLIPSE">
      <path class="cls-1" d="M273.4,531.42c0,.9,1.27,1.64,2.84,1.64s2.84-.73,2.84-1.64c0-.43-.3-.85-.83-1.16"/>
    </g>
    <g id="LINE-90" data-name="LINE">
      <line class="cls-2" x1="181" y1="885.04" x2="183.51" y2="883.59"/>
    </g>
    <g id="ELLIPSE-64" data-name="ELLIPSE">
      <path class="cls-1" d="M213.55,70.01c0,.54.37,1.06,1.04,1.45"/>
    </g>
    <g id="LINE-91" data-name="LINE">
      <line class="cls-2" x1="371.46" y1="511.74" x2="419.08" y2="539.23"/>
    </g>
    <g id="LINE-92" data-name="LINE">
      <line class="cls-1" x1="143.74" y1="476.44" x2="143.74" y2="474.12"/>
    </g>
    <g id="LINE-93" data-name="LINE">
      <line class="cls-2" x1="134.38" y1="437.38" x2="99.3" y2="457.63"/>
    </g>
    <g id="ELLIPSE-65" data-name="ELLIPSE">
      <path class="cls-2" d="M164.64,461.1c.83.25,1.82.25,2.65,0"/>
    </g>
    <g id="ELLIPSE-66" data-name="ELLIPSE">
      <path class="cls-1" d="M167.97,466.6c-1.11-.64-2.9-.64-4.01,0-.53.31-.83.72-.83,1.16"/>
    </g>
    <g id="LINE-94" data-name="LINE">
      <line class="cls-2" x1="191.53" y1="75.51" x2="191.53" y2="73.2"/>
    </g>
    <g id="LINE-95" data-name="LINE">
      <line class="cls-2" x1="406.9" y1="505.34" x2="329.42" y2="460.61"/>
    </g>
    <g id="LINE-96" data-name="LINE">
      <line class="cls-1" x1="275.89" y1="522.54" x2="275.89" y2="520.22"/>
    </g>
    <g id="LINE-97" data-name="LINE">
      <line class="cls-2" x1="250.8" y1="109.73" x2="195.54" y2="77.83"/>
    </g>
    <g id="ELLIPSE-67" data-name="ELLIPSE">
      <path class="cls-2" d="M50.69,485.7c-27.68,15.98-50.12,54.85-50.12,86.81"/>
    </g>
    <g id="ELLIPSE-68" data-name="ELLIPSE">
      <path class="cls-1" d="M202.55,64.51c1.38.8,3.63.8,5.01,0,.66-.38,1.04-.9,1.04-1.45"/>
    </g>
    <g id="LINE-98" data-name="LINE">
      <line class="cls-2" x1="128.5" y1="39.12" x2="191.53" y2="75.51"/>
    </g>
    <g id="ELLIPSE-69" data-name="ELLIPSE">
      <path class="cls-2" d="M231.12,589.87c-27.68,15.98-50.12,54.85-50.12,86.81"/>
    </g>
    <g id="LINE-99" data-name="LINE">
      <line class="cls-2" x1="310.31" y1="101.26" x2="310.31" y2="67.84"/>
    </g>
    <g id="LINE-100" data-name="LINE">
      <line class="cls-1" x1="273.4" y1="529.11" x2="273.4" y2="531.42"/>
    </g>
    <g id="LINE-101" data-name="LINE">
      <line class="cls-2" x1="97.83" y1="458.48" x2="50.69" y2="485.7"/>
    </g>
    <g id="ELLIPSE-70" data-name="ELLIPSE">
      <path class="cls-1" d="M196.5,60.17c0,.54.37,1.06,1.04,1.45"/>
    </g>
    <g id="LINE-102" data-name="LINE">
      <line class="cls-2" x1="226.61" y1="55.25" x2="191.53" y2="75.51"/>
    </g>
    <g id="LINE-103" data-name="LINE">
      <line class="cls-2" x1="191.03" y1="404.67" x2="134.38" y2="437.38"/>
    </g>
    <g id="ELLIPSE-71" data-name="ELLIPSE">
      <path class="cls-1" d="M132.33,3.72c-1.61.93-2.51,2.93-2.51,5.56"/>
    </g>
    <g id="LINE-104" data-name="LINE">
      <line class="cls-2" x1="207.57" y1="61.62" x2="202.55" y2="58.73"/>
    </g>
    <g id="LINE-105" data-name="LINE">
      <line class="cls-1" x1="146.26" y1="485.9" x2="103.32" y2="461.1"/>
    </g>
    <g id="LINE-106" data-name="LINE">
      <line class="cls-2" x1="207.57" y1="61.62" x2="207.57" y2="59.31"/>
    </g>
    <g id="LINE-107" data-name="LINE">
      <line class="cls-2" x1="202.55" y1="58.73" x2="202.55" y2="56.41"/>
    </g>
    <g id="ELLIPSE-72" data-name="ELLIPSE">
      <path class="cls-2" d="M310.31,67.84c0-31.64-44.43-57.29-99.23-57.29-16.17,0-32.09,2.28-46.38,6.64"/>
    </g>
    <g id="LINE-108" data-name="LINE">
      <line class="cls-2" x1="219.6" y1="68.57" x2="219.6" y2="66.25"/>
    </g>
    <g id="LINE-109" data-name="LINE">
      <line class="cls-1" x1="146.26" y1="485.9" x2="146.26" y2="488.21"/>
    </g>
    <g id="LINE-110" data-name="LINE">
      <line class="cls-2" x1="292.33" y1="557.43" x2="281.25" y2="563.83"/>
    </g>
    <g id="ELLIPSE-73" data-name="ELLIPSE">
      <path class="cls-2" d="M202.55,62.2c1.38.8,3.63.8,5.01,0,.15-.09.29-.19.42-.29"/>
    </g>
    <g id="ELLIPSE-74" data-name="ELLIPSE">
      <path class="cls-1" d="M274.91,524.76c-1.38.42-1.91,1.41-1.18,2.21s2.45,1.1,3.83.68,1.91-1.41,1.18-2.21c-.27-.29-.68-.53-1.18-.68"/>
    </g>
    <g id="LINE-111" data-name="LINE">
      <line class="cls-2" x1="103.32" y1="24.58" x2="94.73" y2="29.54"/>
    </g>
    <g id="LINE-112" data-name="LINE">
      <line class="cls-2" x1="94.73" y1="446.24" x2="94.73" y2="29.54"/>
    </g>
    <g id="LINE-113" data-name="LINE">
      <line class="cls-2" x1="50.69" y1="485.7" x2="231.12" y2="589.87"/>
    </g>
    <g id="ELLIPSE-75" data-name="ELLIPSE">
      <path class="cls-1" d="M258.36,545.89c0,.9,1.27,1.64,2.84,1.64s2.84-.73,2.84-1.64c0-.43-.3-.85-.83-1.16"/>
    </g>
    <g id="LINE-114" data-name="LINE">
      <line class="cls-2" x1="166.8" y1="18.41" x2="226.61" y2="52.94"/>
    </g>
    <g id="ELLIPSE-76" data-name="ELLIPSE">
      <path class="cls-2" d="M126.44,37.93c-9.55,9-14.6,19.35-14.6,29.91"/>
    </g>
    <g id="LINE-115" data-name="LINE">
      <line class="cls-2" x1="224.61" y1="71.46" x2="219.6" y2="68.57"/>
    </g>
    <g id="LINE-116" data-name="LINE">
      <line class="cls-1" x1="3.07" y1="779.41" x2="3.07" y2="571.06"/>
    </g>
    <g id="LINE-117" data-name="LINE">
      <line class="cls-2" x1="283.75" y1="126.44" x2="195.54" y2="75.51"/>
    </g>
    <g id="ELLIPSE-77" data-name="ELLIPSE">
      <path class="cls-2" d="M207.98,61.91c.97-.81.79-1.91-.42-2.6"/>
    </g>
    <g id="LINE-118" data-name="LINE">
      <line class="cls-2" x1="129.82" y1="425.98" x2="94.73" y2="446.24"/>
    </g>
    <g id="ELLIPSE-78" data-name="ELLIPSE">
      <path class="cls-2" d="M231.12,592.77c-26.3,15.18-47.62,52.11-47.62,82.47"/>
    </g>
    <g id="LINE-119" data-name="LINE">
      <line class="cls-2" x1="292.33" y1="439.19" x2="226.47" y2="401.16"/>
    </g>
    <g id="LINE-120" data-name="LINE">
      <line class="cls-2" x1="207.57" y1="59.31" x2="202.55" y2="56.41"/>
    </g>
    <g id="ELLIPSE-79" data-name="ELLIPSE">
      <path class="cls-2" d="M226.47,401.16c-9.4-5.43-22.15-4.16-35.44,3.51"/>
    </g>
    <g id="LINE-121" data-name="LINE">
      <line class="cls-1" x1="240.8" y1="540.48" x2="281.25" y2="563.83"/>
    </g>
    <g id="LINE-122" data-name="LINE">
      <line class="cls-2" x1=".57" y1="780.86" x2=".57" y2="572.51"/>
    </g>
    <g id="LINE-123" data-name="LINE">
      <line class="cls-2" x1="283.75" y1="128.76" x2="262.88" y2="116.71"/>
    </g>
    <g id="ELLIPSE-80" data-name="ELLIPSE">
      <path class="cls-1" d="M97.83,458.48c1.65,2.11,3.55,3.82,5.49,4.94"/>
    </g>
    <g id="LINE-124" data-name="LINE">
      <line class="cls-2" x1="197.54" y1="59.31" x2="202.55" y2="62.2"/>
    </g>
    <g id="LINE-125" data-name="LINE">
      <line class="cls-1" x1="371.46" y1="508.85" x2="421.58" y2="537.79"/>
    </g>
    <g id="LINE-126" data-name="LINE">
      <line class="cls-2" x1="281.25" y1="563.83" x2="283.75" y2="565.28"/>
    </g>
    <g id="LINE-127" data-name="LINE">
      <line class="cls-1" x1="191.03" y1="407.57" x2="50.69" y2="488.59"/>
    </g>
    <g id="LINE-128" data-name="LINE">
      <line class="cls-2" x1="292.33" y1="560.32" x2="283.75" y2="565.28"/>
    </g>
    <g id="LINE-129" data-name="LINE">
      <line class="cls-2" x1="294.34" y1="561.48" x2="294.34" y2="144.78"/>
    </g>
    <g id="ELLIPSE-81" data-name="ELLIPSE">
      <path class="cls-2" d="M197.13,59.02c.12.1.26.2.42.29"/>
    </g>
    <g id="ELLIPSE-82" data-name="ELLIPSE">
      <path class="cls-1" d="M241.15,433.61c0-15.35-5.28-27.02-14.68-32.45"/>
    </g>
    <g id="LINE-130" data-name="LINE">
      <line class="cls-2" x1="183.51" y1="883.59" x2="183.51" y2="675.24"/>
    </g>
    <g id="LINE-131" data-name="LINE">
      <line class="cls-1" x1="3.07" y1="779.41" x2="183.51" y2="883.59"/>
    </g>
    <g id="LINE-132" data-name="LINE">
      <line class="cls-2" x1="292.33" y1="560.32" x2="292.33" y2="557.43"/>
    </g>
    <g id="LINE-133" data-name="LINE">
      <line class="cls-1" x1="405.13" y1="508.41" x2="224.7" y2="404.23"/>
    </g>
    <g id="LINE-134" data-name="LINE">
      <line class="cls-2" x1="281.25" y1="563.83" x2="279.24" y2="564.99"/>
    </g>
    <g id="LINE-135" data-name="LINE">
      <line class="cls-1" x1="92.73" y1="28.38" x2="103.32" y2="22.27"/>
    </g>
    <g id="LINE-136" data-name="LINE">
      <line class="cls-2" x1="329.42" y1="484.58" x2="329.42" y2="460.61"/>
    </g>
    <g id="ELLIPSE-83" data-name="ELLIPSE">
      <path class="cls-2" d="M219.6,72.04c1.38.8,3.63.8,5.01,0,.15-.09.29-.19.42-.29"/>
    </g>
    <g id="ELLIPSE-84" data-name="ELLIPSE">
      <path class="cls-1" d="M166.8,18.41c-15.84,4.73-29.09,11.9-38.29,20.72"/>
    </g>
    <g id="LINE-137" data-name="LINE">
      <line class="cls-2" x1="421.58" y1="746.14" x2="421.58" y2="537.79"/>
    </g>
    <g id="ELLIPSE-85" data-name="ELLIPSE">
      <path class="cls-1" d="M263.2,544.73c-1.11-.64-2.9-.64-4.01,0-.53.31-.83.72-.83,1.16"/>
    </g>
    <g id="LINE-138" data-name="LINE">
      <line class="cls-2" x1=".57" y1="780.86" x2="181" y2="885.04"/>
    </g>
    <g id="LINE-139" data-name="LINE">
      <line class="cls-1" x1="138.4" y1="440.85" x2="103.32" y2="461.1"/>
    </g>
    <g id="LINE-140" data-name="LINE">
      <line class="cls-2" x1="329.42" y1="460.61" x2="329.42" y2="124.52"/>
    </g>
    <g id="LINE-141" data-name="LINE">
      <line class="cls-1" x1="318.84" y1="108.5" x2="230.62" y2="57.57"/>
    </g>
    <g id="LINE-142" data-name="LINE">
      <line class="cls-2" x1=".57" y1="572.51" x2="181" y2="676.69"/>
    </g>
    <g id="ELLIPSE-86" data-name="ELLIPSE">
      <path class="cls-2" d="M103.32,24.58c-4.74-2.74-8.58-.52-8.58,4.96"/>
    </g>
    <g id="ELLIPSE-87" data-name="ELLIPSE">
      <ellipse class="cls-1" cx="276.23" cy="529.11" rx="2.84" ry="1.64"/>
    </g>
    <g id="LINE-143" data-name="LINE">
      <line class="cls-2" x1="279.24" y1="564.99" x2="238.64" y2="588.43"/>
    </g>
    <g id="LINE-144" data-name="LINE">
      <line class="cls-2" x1="329.42" y1="484.58" x2="371.46" y2="508.85"/>
    </g>
    <g id="ELLIPSE-88" data-name="ELLIPSE">
      <path class="cls-1" d="M324.91,545.62c1.61-.93,2.51-2.93,2.51-5.56"/>
    </g>
    <g id="LINE-145" data-name="LINE">
      <line class="cls-2" x1="103.32" y1="22.27" x2="138.4" y2="2.01"/>
    </g>
    <g id="LINE-146" data-name="LINE">
      <line class="cls-2" x1="329.42" y1="541.22" x2="329.42" y2="536.01"/>
    </g>
    <g id="LINE-147" data-name="LINE">
      <line class="cls-2" x1="371.46" y1="511.74" x2="329.42" y2="536.01"/>
    </g>
    <g id="LINE-148" data-name="LINE">
      <line class="cls-2" x1="292.33" y1="554.53" x2="292.33" y2="463.16"/>
    </g>
    <g id="LINE-149" data-name="LINE">
      <line class="cls-1" x1="191.03" y1="407.57" x2="371.46" y2="511.74"/>
    </g>
    <g id="ELLIPSE-89" data-name="ELLIPSE">
      <path class="cls-1" d="M134.38,437.38c1.24,1.47,2.62,2.66,4.02,3.47"/>
    </g>
    <g id="LINE-150" data-name="LINE">
      <line class="cls-2" x1="103.32" y1="22.27" x2="191.53" y2="73.2"/>
    </g>
    <g id="LINE-151" data-name="LINE">
      <line class="cls-2" x1="294.34" y1="144.78" x2="329.42" y2="124.52"/>
    </g>
    <g id="LINE-152" data-name="LINE">
      <line class="cls-2" x1="292.33" y1="554.53" x2="231.12" y2="589.87"/>
    </g>
    <g id="LINE-153" data-name="LINE">
      <line class="cls-1" x1="275.89" y1="520.22" x2="318.84" y2="545.02"/>
    </g>
    <g id="LINE-154" data-name="LINE">
      <line class="cls-2" x1="292.33" y1="439.19" x2="292.33" y2="193.33"/>
    </g>
    <g id="ELLIPSE-90" data-name="ELLIPSE">
      <path class="cls-2" d="M283.75,565.28c4.74,2.74,8.58.52,8.58-4.96"/>
    </g>
    <g id="ELLIPSE-91" data-name="ELLIPSE">
      <path class="cls-1" d="M219.6,74.35c1.38.8,3.63.8,5.01,0,.66-.38,1.04-.9,1.04-1.45"/>
    </g>
    <g id="LINE-155" data-name="LINE">
      <line class="cls-2" x1="138.4" y1="2.01" x2="164.7" y2="17.19"/>
    </g>
    <g id="LINE-156" data-name="LINE">
      <line class="cls-1" x1="181.35" y1="465.64" x2="146.26" y2="485.9"/>
    </g>
    <g id="LINE-157" data-name="LINE">
      <line class="cls-2" x1="329.42" y1="533.12" x2="329.42" y2="484.58"/>
    </g>
    <g id="ELLIPSE-92" data-name="ELLIPSE">
      <ellipse class="cls-1" cx="140.91" cy="474.12" rx="2.84" ry="1.64"/>
    </g>
    <g id="LINE-158" data-name="LINE">
      <line class="cls-2" x1="238.64" y1="643.41" x2="238.64" y2="588.43"/>
    </g>
    <g id="LINE-159" data-name="LINE">
      <line class="cls-2" x1="419.08" y1="747.58" x2="421.58" y2="746.14"/>
    </g>
    <g id="ELLIPSE-93" data-name="ELLIPSE">
      <path class="cls-2" d="M291.24,568.33c1.99-1.15,3.1-3.61,3.1-6.85"/>
    </g>
    <g id="LINE-160" data-name="LINE">
      <line class="cls-2" x1="103.32" y1="24.58" x2="126.44" y2="37.93"/>
    </g>
    <g id="LINE-161" data-name="LINE">
      <line class="cls-1" x1="214.58" y1="71.46" x2="214.58" y2="69.14"/>
    </g>
    <g id="LINE-162" data-name="LINE">
      <line class="cls-2" x1="291.24" y1="568.33" x2="326.32" y2="548.08"/>
    </g>
    <g id="LINE-163" data-name="LINE">
      <line class="cls-2" x1="92.73" y1="445.08" x2="92.73" y2="28.38"/>
    </g>
    <g id="ELLIPSE-94" data-name="ELLIPSE">
      <path class="cls-2" d="M128.5,39.12c-26.58,25.48-13.78,58.52,29.08,75.02"/>
    </g>
    <g id="ELLIPSE-95" data-name="ELLIPSE">
      <path class="cls-1" d="M262.88,116.71c15.19-5.37,27.6-13,35.92-22.09"/>
    </g>
    <g id="LINE-164" data-name="LINE">
      <line class="cls-2" x1="371.46" y1="508.85" x2="329.42" y2="533.12"/>
    </g>
  </g>
</svg>